<mxfile host="65bd71144e">
    <diagram id="Z3KH5_XjGhMpDvTEtEw1" name="Page-1">
        <mxGraphModel dx="2288" dy="1053" grid="1" gridSize="10" guides="1" tooltips="1" connect="1" arrows="1" fold="1" page="1" pageScale="1" pageWidth="1100" pageHeight="850" math="0" shadow="0">
            <root>
                <mxCell id="0"/>
                <mxCell id="1" parent="0"/>
                <mxCell id="2" value="&lt;div style=&quot;color: rgb(51 , 51 , 51) ; background-color: rgb(245 , 245 , 245) ; font-size: 14px ; line-height: 19px&quot;&gt;&lt;div&gt;&amp;nbsp; &amp;nbsp; &amp;nbsp; &amp;nbsp; &amp;nbsp; &amp;nbsp; &amp;nbsp; &amp;nbsp; &amp;nbsp; &amp;nbsp; &amp;nbsp; &amp;nbsp; &amp;nbsp;&lt;/div&gt;&lt;div&gt;&lt;span style=&quot;color: #7a3e9d ; font-weight: bold&quot;&gt;&amp;nbsp; &amp;nbsp; local&lt;/span&gt;&lt;span style=&quot;color: #777777&quot;&gt;.get&lt;/span&gt;&amp;nbsp;&lt;span style=&quot;color: rgb(156 , 93 , 39)&quot;&gt;0&lt;/span&gt;&lt;/div&gt;&lt;div&gt;&amp;nbsp; &amp;nbsp; &lt;span style=&quot;color: #7a3e9d ; font-weight: bold&quot;&gt;i32&lt;/span&gt;&lt;span style=&quot;color: #777777&quot;&gt;.const&lt;/span&gt; &lt;span style=&quot;color: #9c5d27&quot;&gt;1&lt;/span&gt;&lt;/div&gt;&lt;div&gt;&amp;nbsp; &amp;nbsp; &lt;span style=&quot;color: #7a3e9d ; font-weight: bold&quot;&gt;i32&lt;/span&gt;&lt;span style=&quot;color: #777777&quot;&gt;.add&lt;/span&gt;&lt;/div&gt;&lt;div&gt;&amp;nbsp; &amp;nbsp; &lt;span style=&quot;color: #7a3e9d ; font-weight: bold&quot;&gt;local&lt;/span&gt;&lt;span style=&quot;color: #777777&quot;&gt;.set&lt;/span&gt;&amp;nbsp;&lt;span style=&quot;color: rgb(156 , 93 , 39)&quot;&gt;0&lt;/span&gt;&lt;/div&gt;&lt;div&gt;&amp;nbsp; &amp;nbsp; &lt;span style=&quot;color: #7a3e9d ; font-weight: bold&quot;&gt;local&lt;/span&gt;&lt;span style=&quot;color: #777777&quot;&gt;.get&lt;/span&gt;&amp;nbsp;&lt;span style=&quot;color: rgb(156 , 93 , 39)&quot;&gt;0&lt;/span&gt;&lt;/div&gt;&lt;div&gt;&amp;nbsp; &amp;nbsp; &lt;span style=&quot;color: #4b69c6&quot;&gt;call&lt;/span&gt; &lt;span style=&quot;color: #aa3731 ; font-weight: bold&quot;&gt;$log&lt;/span&gt;&lt;/div&gt;&lt;br&gt;&lt;div&gt;&amp;nbsp; &amp;nbsp; &lt;span style=&quot;color: #4b69c6&quot;&gt;block&lt;/span&gt;&lt;/div&gt;&lt;div&gt;&amp;nbsp; &amp;nbsp; &amp;nbsp; &lt;span style=&quot;color: #7a3e9d ; font-weight: bold&quot;&gt;local&lt;/span&gt;&lt;span style=&quot;color: #777777&quot;&gt;.get&lt;/span&gt;&amp;nbsp;&lt;span style=&quot;color: rgb(156 , 93 , 39)&quot;&gt;0&lt;/span&gt;&lt;/div&gt;&lt;div&gt;&amp;nbsp; &amp;nbsp; &amp;nbsp; &lt;span style=&quot;color: #7a3e9d ; font-weight: bold&quot;&gt;i32&lt;/span&gt;&lt;span style=&quot;color: #777777&quot;&gt;.const&lt;/span&gt; &lt;span style=&quot;color: #9c5d27&quot;&gt;1&lt;/span&gt;&lt;/div&gt;&lt;div&gt;&amp;nbsp; &amp;nbsp; &amp;nbsp; &lt;span style=&quot;color: #7a3e9d ; font-weight: bold&quot;&gt;i32&lt;/span&gt;&lt;span style=&quot;color: #777777&quot;&gt;.eq&lt;/span&gt;&lt;/div&gt;&lt;div&gt;&amp;nbsp; &amp;nbsp; &amp;nbsp; &lt;span style=&quot;color: #4b69c6&quot;&gt;br_if&lt;/span&gt; &lt;span style=&quot;color: #9c5d27&quot;&gt;0&lt;/span&gt;&lt;/div&gt;&lt;div&gt;&amp;nbsp; &amp;nbsp; &amp;nbsp; &lt;span style=&quot;color: #7a3e9d ; font-weight: bold&quot;&gt;local&lt;/span&gt;&lt;span style=&quot;color: #777777&quot;&gt;.get&lt;/span&gt;&amp;nbsp;&lt;span style=&quot;color: rgb(156 , 93 , 39)&quot;&gt;0&lt;/span&gt;&lt;/div&gt;&lt;div&gt;&amp;nbsp; &amp;nbsp; &amp;nbsp; &lt;span style=&quot;color: #7a3e9d ; font-weight: bold&quot;&gt;i32&lt;/span&gt;&lt;span style=&quot;color: #777777&quot;&gt;.const&lt;/span&gt; &lt;span style=&quot;color: #9c5d27&quot;&gt;1&lt;/span&gt;&lt;/div&gt;&lt;div&gt;&amp;nbsp; &amp;nbsp; &amp;nbsp; &lt;span style=&quot;color: #7a3e9d ; font-weight: bold&quot;&gt;i32&lt;/span&gt;&lt;span style=&quot;color: #777777&quot;&gt;.add&lt;/span&gt;&lt;/div&gt;&lt;div&gt;&amp;nbsp; &amp;nbsp; &amp;nbsp; &lt;span style=&quot;color: #7a3e9d ; font-weight: bold&quot;&gt;local&lt;/span&gt;&lt;span style=&quot;color: #777777&quot;&gt;.set&lt;/span&gt;&amp;nbsp;&lt;span style=&quot;color: rgb(156 , 93 , 39)&quot;&gt;0&lt;/span&gt;&lt;/div&gt;&lt;div&gt;&amp;nbsp; &amp;nbsp; &amp;nbsp; &lt;span style=&quot;color: #7a3e9d ; font-weight: bold&quot;&gt;local&lt;/span&gt;&lt;span style=&quot;color: #777777&quot;&gt;.get&lt;/span&gt;&amp;nbsp;&lt;span style=&quot;color: rgb(156 , 93 , 39)&quot;&gt;0&lt;/span&gt;&lt;/div&gt;&lt;div&gt;&amp;nbsp; &amp;nbsp; &amp;nbsp; &lt;span style=&quot;color: #4b69c6&quot;&gt;call&lt;/span&gt; &lt;span style=&quot;color: #aa3731 ; font-weight: bold&quot;&gt;$log&lt;/span&gt;&lt;/div&gt;&lt;div&gt;&amp;nbsp; &amp;nbsp; &lt;span style=&quot;color: #4b69c6&quot;&gt;end&lt;/span&gt;&lt;/div&gt;&lt;br&gt;&lt;div&gt;&amp;nbsp; &amp;nbsp; &lt;span style=&quot;color: #7a3e9d ; font-weight: bold&quot;&gt;local&lt;/span&gt;&lt;span style=&quot;color: #777777&quot;&gt;.get&lt;/span&gt;&amp;nbsp;&lt;span style=&quot;color: rgb(156 , 93 , 39)&quot;&gt;0&lt;/span&gt;&lt;/div&gt;&lt;div&gt;&amp;nbsp; &amp;nbsp; &lt;span style=&quot;color: #7a3e9d ; font-weight: bold&quot;&gt;i32&lt;/span&gt;&lt;span style=&quot;color: #777777&quot;&gt;.const&lt;/span&gt; &lt;span style=&quot;color: #9c5d27&quot;&gt;1&lt;/span&gt;&lt;/div&gt;&lt;div&gt;&amp;nbsp; &amp;nbsp; &lt;span style=&quot;color: #7a3e9d ; font-weight: bold&quot;&gt;i32&lt;/span&gt;&lt;span style=&quot;color: #777777&quot;&gt;.add&lt;/span&gt;&lt;/div&gt;&lt;div&gt;&amp;nbsp; &amp;nbsp; &lt;span style=&quot;color: #7a3e9d ; font-weight: bold&quot;&gt;local&lt;/span&gt;&lt;span style=&quot;color: #777777&quot;&gt;.set&lt;/span&gt;&amp;nbsp;&lt;span style=&quot;color: rgb(156 , 93 , 39)&quot;&gt;0&lt;/span&gt;&lt;/div&gt;&lt;div&gt;&amp;nbsp; &amp;nbsp; &lt;span style=&quot;color: #7a3e9d ; font-weight: bold&quot;&gt;local&lt;/span&gt;&lt;span style=&quot;color: #777777&quot;&gt;.get&lt;/span&gt;&amp;nbsp;&lt;span style=&quot;color: rgb(156 , 93 , 39)&quot;&gt;0&lt;/span&gt;&lt;/div&gt;&lt;div&gt;&amp;nbsp; &amp;nbsp; &lt;span style=&quot;color: #4b69c6&quot;&gt;call&lt;/span&gt; &lt;span style=&quot;color: #aa3731 ; font-weight: bold&quot;&gt;$log&lt;/span&gt;&lt;/div&gt;&lt;/div&gt;" style="text;html=1;strokeColor=none;fillColor=none;align=left;verticalAlign=middle;whiteSpace=wrap;rounded=0;fontFamily=Lucida Console;" parent="1" vertex="1">
                    <mxGeometry x="435" y="150" width="230" height="550" as="geometry"/>
                </mxCell>
                <mxCell id="3" value="" style="endArrow=none;html=1;fontFamily=Lucida Console;strokeWidth=3;strokeColor=#808080;startArrow=classic;startFill=1;endFill=0;" parent="1" edge="1">
                    <mxGeometry width="50" height="50" relative="1" as="geometry">
                        <mxPoint x="400" y="250" as="sourcePoint"/>
                        <mxPoint x="400" y="600" as="targetPoint"/>
                    </mxGeometry>
                </mxCell>
                <mxCell id="4" value="Analysis&lt;br&gt;Flow" style="text;html=1;strokeColor=none;fillColor=none;align=center;verticalAlign=middle;whiteSpace=wrap;rounded=0;fontFamily=Lucida Console;fontColor=#808080;fontStyle=1" parent="1" vertex="1">
                    <mxGeometry x="330" y="410" width="60" height="30" as="geometry"/>
                </mxCell>
                <mxCell id="24" style="edgeStyle=orthogonalEdgeStyle;html=1;exitX=1;exitY=1;exitDx=0;exitDy=0;entryX=1;entryY=0;entryDx=0;entryDy=0;fontSize=17;fontColor=#FF33FF;startArrow=none;startFill=0;endArrow=classic;endFill=1;strokeColor=#808080;strokeWidth=2;" edge="1" parent="1" source="5" target="18">
                    <mxGeometry relative="1" as="geometry">
                        <Array as="points">
                            <mxPoint x="750" y="300"/>
                            <mxPoint x="750" y="340"/>
                        </Array>
                    </mxGeometry>
                </mxCell>
                <mxCell id="5" value="" style="rounded=0;whiteSpace=wrap;html=1;fontFamily=Lucida Console;fillColor=none;strokeColor=#6666FF;strokeWidth=2;" parent="1" vertex="1">
                    <mxGeometry x="435" y="180" width="205" height="120" as="geometry"/>
                </mxCell>
                <mxCell id="6" value="" style="rounded=0;whiteSpace=wrap;html=1;fontFamily=Lucida Console;fillColor=none;strokeColor=#6666FF;strokeWidth=2;" parent="1" vertex="1">
                    <mxGeometry x="435" y="320" width="205" height="230" as="geometry"/>
                </mxCell>
                <mxCell id="17" style="edgeStyle=orthogonalEdgeStyle;html=1;exitX=1;exitY=1;exitDx=0;exitDy=0;entryX=0.5;entryY=0;entryDx=0;entryDy=0;fontSize=17;startArrow=none;startFill=0;endArrow=classic;endFill=1;strokeColor=#808080;strokeWidth=2;" edge="1" parent="1" source="12" target="14">
                    <mxGeometry relative="1" as="geometry">
                        <Array as="points">
                            <mxPoint x="680" y="680"/>
                        </Array>
                    </mxGeometry>
                </mxCell>
                <mxCell id="12" value="" style="rounded=0;whiteSpace=wrap;html=1;fontFamily=Lucida Console;fillColor=none;strokeColor=#6666FF;strokeWidth=2;" parent="1" vertex="1">
                    <mxGeometry x="435" y="560" width="205" height="120" as="geometry"/>
                </mxCell>
                <mxCell id="21" style="edgeStyle=orthogonalEdgeStyle;html=1;exitX=1;exitY=1;exitDx=0;exitDy=0;entryX=1;entryY=0;entryDx=0;entryDy=0;fontSize=17;fontColor=#FF33FF;startArrow=none;startFill=0;endArrow=classic;endFill=1;strokeColor=#808080;strokeWidth=2;" edge="1" parent="1" source="13" target="12">
                    <mxGeometry relative="1" as="geometry">
                        <Array as="points">
                            <mxPoint x="690" y="526"/>
                            <mxPoint x="690" y="560"/>
                        </Array>
                    </mxGeometry>
                </mxCell>
                <mxCell id="13" value="" style="rounded=0;whiteSpace=wrap;html=1;fontFamily=Lucida Console;fillColor=none;strokeColor=#FF33FF;strokeWidth=2;" vertex="1" parent="1">
                    <mxGeometry x="456" y="416" width="205" height="110" as="geometry"/>
                </mxCell>
                <mxCell id="14" value="&lt;font style=&quot;font-size: 17px&quot;&gt;END&lt;/font&gt;" style="text;html=1;strokeColor=none;fillColor=none;align=center;verticalAlign=middle;whiteSpace=wrap;rounded=0;fontFamily=Lucida Console;fontColor=#808080;fontStyle=1" vertex="1" parent="1">
                    <mxGeometry x="650" y="710" width="60" height="30" as="geometry"/>
                </mxCell>
                <mxCell id="22" style="edgeStyle=orthogonalEdgeStyle;html=1;exitX=1;exitY=0.75;exitDx=0;exitDy=0;fontSize=17;fontColor=#FF33FF;startArrow=none;startFill=0;endArrow=classic;endFill=1;strokeColor=#808080;strokeWidth=2;entryX=1;entryY=0;entryDx=0;entryDy=0;" edge="1" parent="1" source="18" target="13">
                    <mxGeometry relative="1" as="geometry">
                        <mxPoint x="690" y="430" as="targetPoint"/>
                        <Array as="points">
                            <mxPoint x="710" y="397"/>
                            <mxPoint x="710" y="416"/>
                        </Array>
                    </mxGeometry>
                </mxCell>
                <mxCell id="23" style="edgeStyle=orthogonalEdgeStyle;html=1;exitX=1;exitY=0.75;exitDx=0;exitDy=0;fontSize=17;fontColor=#FF33FF;startArrow=none;startFill=0;endArrow=classic;endFill=1;strokeColor=#808080;strokeWidth=2;entryX=1;entryY=0;entryDx=0;entryDy=0;" edge="1" parent="1" source="18" target="12">
                    <mxGeometry relative="1" as="geometry">
                        <mxPoint x="730" y="580" as="targetPoint"/>
                        <Array as="points">
                            <mxPoint x="720" y="397"/>
                            <mxPoint x="720" y="560"/>
                        </Array>
                    </mxGeometry>
                </mxCell>
                <mxCell id="18" value="" style="rounded=0;whiteSpace=wrap;html=1;fontFamily=Lucida Console;fillColor=none;strokeColor=#FF33FF;strokeWidth=2;" vertex="1" parent="1">
                    <mxGeometry x="456" y="340" width="205" height="76" as="geometry"/>
                </mxCell>
                <mxCell id="19" value="Recursion Level 0" style="text;html=1;strokeColor=none;fillColor=none;align=center;verticalAlign=middle;whiteSpace=wrap;rounded=0;fontFamily=Lucida Console;fontColor=#6666FF;fontStyle=1" vertex="1" parent="1">
                    <mxGeometry x="640" y="140" width="60" height="30" as="geometry"/>
                </mxCell>
                <mxCell id="20" value="Recursion Level 1" style="text;html=1;strokeColor=none;fillColor=none;align=center;verticalAlign=middle;whiteSpace=wrap;rounded=0;fontFamily=Lucida Console;fontColor=#FF33FF;fontStyle=1" vertex="1" parent="1">
                    <mxGeometry x="665" y="310" width="60" height="30" as="geometry"/>
                </mxCell>
                <mxCell id="28" style="edgeStyle=orthogonalEdgeStyle;html=1;exitX=0;exitY=0.5;exitDx=0;exitDy=0;entryX=1;entryY=0;entryDx=0;entryDy=0;fontSize=17;fontColor=#FF33FF;startArrow=none;startFill=0;endArrow=classic;endFill=1;strokeColor=#808080;strokeWidth=2;" edge="1" parent="1" source="25" target="5">
                    <mxGeometry relative="1" as="geometry">
                        <Array as="points">
                            <mxPoint x="670" y="185"/>
                            <mxPoint x="670" y="180"/>
                        </Array>
                    </mxGeometry>
                </mxCell>
                <mxCell id="25" value="&lt;font style=&quot;font-size: 17px&quot;&gt;Start&lt;/font&gt;" style="text;html=1;strokeColor=none;fillColor=none;align=center;verticalAlign=middle;whiteSpace=wrap;rounded=0;fontFamily=Lucida Console;fontColor=#808080;fontStyle=1" vertex="1" parent="1">
                    <mxGeometry x="684" y="170" width="60" height="30" as="geometry"/>
                </mxCell>
            </root>
        </mxGraphModel>
    </diagram>
</mxfile>